# xmcd CD database file
#
# Track frame offsets:
#	182
#	23500
#	39020
#	50377
#	80477
#	85977
#	117320
#	136982
#	144225
#	165495
#	177095
#	195750
#	212945
#	222327
#	233212
#	252455
#
# Disc length: 3667 seconds
#
# Revision: 0
# Processed by: cddbd v1.5.2PL0 Copyright (c) Steve Scherf et al.
# Submitted via: CDex 1.51
#
DISCID=ce0e5110
DTITLE=Antonitas d'Havila  - Flamenco Fiesta
DYEAR=1998
DGENRE=Flamenco
TTITLE0=Peteneras
TTITLE1=Alegrias Poetica
TTITLE2=Fiesta Flamenco
TTITLE3=Fandanguillos
TTITLE4=Sevilianas
TTITLE5=Guitarra Andaluz
TTITLE6=Zapateados
TTITLE7=Andalucia Romantico
TTITLE8=Rosa Gitana
TTITLE9=Solea Gitana
TTITLE10=Guitarra Gitana
TTITLE11=Granadias Flamencas
TTITLE12=Recuerdos d'Havila
TTITLE13=Bulerias Chico
TTITLE14=Taranta y Buleria
TTITLE15=Malaga
EXTD=YEAR: 1998
EXTT0=
EXTT1=
EXTT2=
EXTT3=
EXTT4=
EXTT5=
EXTT6=
EXTT7=
EXTT8=
EXTT9=
EXTT10=
EXTT11=
EXTT12=
EXTT13=
EXTT14=
EXTT15=
PLAYORDER=
